<?xml version="1.0" encoding="utf-8"?>
<!-- Generator: Adobe Illustrator 16.0.4, SVG Export Plug-In . SVG Version: 6.00 Build 0)  -->
<!DOCTYPE svg PUBLIC "-//W3C//DTD SVG 1.1//EN" "http://www.w3.org/Graphics/SVG/1.1/DTD/svg11.dtd">
<svg version="1.1" id="Logo" xmlns="http://www.w3.org/2000/svg" xmlns:xlink="http://www.w3.org/1999/xlink" x="0px" y="0px"
   width="799.9px" height="600px" viewBox="0 0 799.9 600" enable-background="new 0 0 799.9 600" xml:space="preserve">
<g>
  <polygon fill-rule="evenodd" clip-rule="evenodd" fill="#FFFFFF" points="165.45,412.95 237,318.7 124.95,280.75 150.75,207
    260.45,249.25 260.45,128.7 337.2,128.7 337.2,249.25 448.95,207 474.95,280.75 361.2,318.7 432.45,412.95 369,460 297.95,360.7
    229.95,460  "/>
  <linearGradient id="SVGID_1_" gradientUnits="userSpaceOnUse" x1="399.9507" y1="600.7998" x2="399.9507" y2="-0.8002">
    <stop  offset="0" style="stop-color:#D06193"/>
    <stop  offset="1" style="stop-color:#E86CA3"/>
  </linearGradient>
  <path fill-rule="evenodd" clip-rule="evenodd" fill="url(#SVGID_1_)" d="M599.65,43.95c0.166,1,0.25,2.083,0.25,3.25v201
    L758.65,89.7c4.5-4.333,9.899-6.5,16.199-6.5c7,0,12.934,2.5,17.801,7.5c4.699,4.7,7.116,10.367,7.25,17v384.55
    c-0.134,6.634-2.551,12.283-7.25,16.95c-4.867,4.833-10.801,7.25-17.801,7.25c-6.633,0-12.283-2.25-16.949-6.75l-0.5-0.5
    c-0.167-0.167-0.351-0.316-0.551-0.45L599.9,351.7v199.5c-0.367,13.2-5.2,24.616-14.5,34.25h-0.2
    c-9.367,9.366-20.717,14.217-34.05,14.55H48.75c-13.367-0.333-24.717-5.184-34.05-14.55C5.2,575.816,0.3,564.4,0,551.2V48.7
    c0.3-13.3,5.2-24.633,14.7-34C24.033,5.2,35.383,0.3,48.75,0h502.4c13.333,0.3,24.683,5.2,34.05,14.7
    C593.5,22.9,598.316,32.65,599.65,43.95z M237,318.7l-71.55,94.25l64.5,47.05l68-99.3L369,460l63.45-47.05L361.2,318.7
    l113.75-37.95l-26-73.75L337.2,249.25V128.7h-76.75v120.55L150.75,207l-25.8,73.75L237,318.7z"/>

    <line fill-rule="evenodd" clip-rule="evenodd" fill="none" stroke="#CCCCCC" stroke-width="2.5" stroke-linecap="round" stroke-linejoin="round" stroke-miterlimit="3" stroke-opacity="0" x1="237" y1="318.7" x2="165.45" y2="412.95"/>
</g>
</svg>
