<?xml version="1.0" encoding="utf-8"?>
<!-- Generator: Adobe Illustrator 16.0.0, SVG Export Plug-In . SVG Version: 6.00 Build 0)  -->
<!DOCTYPE svg PUBLIC "-//W3C//DTD SVG 1.1//EN" "http://www.w3.org/Graphics/SVG/1.1/DTD/svg11.dtd">
<svg version="1.1" id="Layer_1" xmlns="http://www.w3.org/2000/svg" xmlns:xlink="http://www.w3.org/1999/xlink" x="0px" y="0px"
	 width="160px" height="120px" viewBox="0 0 160 120" enable-background="new 0 0 160 120" xml:space="preserve">
<path fill-rule="evenodd" clip-rule="evenodd" fill="#8BC06C" d="M151.45,18.55c0.1-0.1,0.217-0.2,0.35-0.3
	c0.867-0.767,1.934-1.15,3.2-1.15c1.366,0,2.55,0.483,3.55,1.45c0.934,0.967,1.417,2.117,1.45,3.45v76.1
	c-0.033,1.334-0.517,2.483-1.45,3.45c-1,0.967-2.184,1.45-3.55,1.45c-1.267,0-2.333-0.384-3.2-1.15c-0.133-0.1-0.25-0.199-0.35-0.3
	c-0.033-0.033-0.066-0.083-0.101-0.149L120,70.05V110c0,6.667-3.333,10-10,10H9.95C3.317,120,0,116.667,0,110V9.95
	C0,3.317,3.317,0,9.95,0H110c6.667,0,10,3.317,10,9.95v40.1l31.35-31.35C151.384,18.633,151.417,18.583,151.45,18.55z M68.55,50.05
	V22.5h-17.6v27.55l-25.05-9.7L20,57.25l25.65,8.65L29.3,87.5L44,98.25l15.55-22.7l16.25,22.7L90.3,87.5L74.05,65.9L100,57.25
	l-5.9-16.9L68.55,50.05z"/>
</svg>
